# xmcd
#
# Track frame offsets:
#       150
#       15145
#       32145
#       50085
#       68105
#       84433
#       101391
#       119523
#       134054
#       147774
#       164715
#
# Disc length: 2433 seconds
#
# Revision: 0
# Processed by: cddbd v1.4PL0 Copyright (c) Steve Scherf et al.
# Submitted via: WhereIsIt 3.26
#
DISCID=96097f0b
DTITLE=Alabama - Greatest Hits Volume 2
DYEAR=1900
DGENRE=
TTITLE0=Born Country
TTITLE1=Then Again
TTITLE2=Dixieland Delight
TTITLE3=Lady Down On Love
TTITLE4=The Closer You Get
TTITLE5=Roll On
TTITLE6=Fallin' Again
TTITLE7=Song Of The South
TTITLE8=High Cotton
TTITLE9=Take Me Down
TTITLE10=Hats Off
EXTD=
EXTT0=
EXTT1=
EXTT2=
EXTT3=
EXTT4=
EXTT5=
EXTT6=
EXTT7=
EXTT8=
EXTT9=
EXTT10=
PLAYORDER=
